<?xml version="1.0" encoding="UTF-8"?>
<svg version="1.1" xmlns="http://www.w3.org/2000/svg" width="239" height="213">
<path d="M0 0 C1.57587891 -0.01160156 1.57587891 -0.01160156 3.18359375 -0.0234375 C16.30864771 0.0094162 28.67029728 4.18053999 38.4453125 13.34765625 C47.33914055 23.4204336 54.668477 35.42315479 54.69140625 49.2265625 C54.95683149 51.38735671 54.95683149 51.38735671 56.7902832 52.84887695 C59.68089551 54.58360706 61.5566013 54.6468429 64.9140625 54.69140625 C66.02007812 54.71783203 67.12609375 54.74425781 68.265625 54.77148438 C69.99039063 54.79178711 69.99039063 54.79178711 71.75 54.8125 C74.03400026 54.84683631 76.31789663 54.88938349 78.6015625 54.94140625 C79.61299316 54.95373291 80.62442383 54.96605957 81.66650391 54.97875977 C84.125 55.25 84.125 55.25 86.125 57.25 C86.4375 59.75 86.4375 59.75 86.125 62.25 C82.54048319 64.63967787 80.7865593 64.53935939 76.5234375 64.62890625 C74.58210938 64.68014648 74.58210938 64.68014648 72.6015625 64.73242188 C71.23438799 64.75977192 69.86720002 64.78645655 68.5 64.8125 C65.82009406 64.87022396 63.1406228 64.93571067 60.4609375 65.00390625 C59.27032715 65.02783447 58.0797168 65.0517627 56.85302734 65.07641602 C54.21192473 64.94281614 54.21192473 64.94281614 53.125 66.25 C53.125 68.89 53.125 71.53 53.125 74.25 C58.735 74.25 64.345 74.25 70.125 74.25 C70.125 80.25 70.125 80.25 68.8125 82.0625 C64.33713472 85.21183112 58.63094616 84.58565925 53.37304688 84.76757812 C47.98270945 85.0020118 47.98270945 85.0020118 43.125 87.25 C43.125 88.24 43.125 89.23 43.125 90.25 C44.06472656 90.43175781 44.06472656 90.43175781 45.0234375 90.6171875 C45.84070313 90.78476563 46.65796875 90.95234375 47.5 91.125 C48.31210938 91.28742188 49.12421875 91.44984375 49.9609375 91.6171875 C52.125 92.25 52.125 92.25 54.125 94.25 C53.875 96.8125 53.875 96.8125 53.125 99.25 C50.50999263 100.55750369 48.45615566 100.44473611 45.53125 100.53125 C44.41878906 100.56863281 43.30632812 100.60601562 42.16015625 100.64453125 C39.80338542 100.71484375 37.44661458 100.78515625 35.08984375 100.85546875 C33.97738281 100.89285156 32.86492187 100.93023437 31.71875 100.96875 C30.69458984 100.99904297 29.67042969 101.02933594 28.61523438 101.06054688 C26.12569084 101.09212357 26.12569084 101.09212357 24.125 102.25 C24.125 102.91 24.125 103.57 24.125 104.25 C24.69009277 104.26981934 25.25518555 104.28963867 25.83740234 104.31005859 C28.39207997 104.40518236 30.94592541 104.51491058 33.5 104.625 C34.38945312 104.6559375 35.27890625 104.686875 36.1953125 104.71875 C37.04609375 104.75742188 37.896875 104.79609375 38.7734375 104.8359375 C39.95172119 104.88306885 39.95172119 104.88306885 41.15380859 104.93115234 C43.125 105.25 43.125 105.25 45.125 107.25 C45.375 109.75 45.375 109.75 45.125 112.25 C42.6244438 114.7505562 41.11839389 114.49704136 37.70565796 114.53216553 C36.95080109 114.52968811 36.19594421 114.52721069 35.41821289 114.5246582 C34.62294693 114.52976913 33.82768097 114.53488007 33.00831604 114.54014587 C30.37135354 114.55408109 27.73465126 114.55308215 25.09765625 114.55078125 C23.26924034 114.5546661 21.44082533 114.55900032 19.6124115 114.56376648 C15.77649004 114.57123719 11.94066061 114.57093132 8.10473633 114.56567383 C3.18374034 114.5598788 -1.73687932 114.57680681 -6.65781307 114.6000185 C-10.43500479 114.61473519 -14.21210545 114.61563036 -17.98932076 114.61250877 C-19.80384631 114.61302305 -21.61837683 114.61828069 -23.43287468 114.62832069 C-25.96843945 114.64062764 -28.50326582 114.63392831 -31.03881836 114.62231445 C-31.791651 114.62995819 -32.54448364 114.63760193 -33.32012939 114.64547729 C-36.24366202 114.61580898 -38.364301 114.57680177 -40.86476135 112.97673035 C-41.875 111.25 -41.875 111.25 -41.875 107.25 C-38.8538566 105.2359044 -38.06839983 104.98163404 -34.64453125 104.8359375 C-33.84208984 104.79726562 -33.03964844 104.75859375 -32.21289062 104.71875 C-31.37951172 104.6878125 -30.54613281 104.656875 -29.6875 104.625 C-28.84251953 104.58632812 -27.99753906 104.54765625 -27.12695312 104.5078125 C-25.04332476 104.41363721 -22.95919247 104.33073325 -20.875 104.25 C-20.875 103.59 -20.875 102.93 -20.875 102.25 C-24.24162282 101.24567985 -27.37803787 101.08335351 -30.8828125 101.00390625 C-32.60951172 100.95459961 -32.60951172 100.95459961 -34.37109375 100.90429688 C-36.7980768 100.84290387 -39.22516764 100.78563804 -41.65234375 100.73242188 C-42.80089844 100.69826172 -43.94945312 100.66410156 -45.1328125 100.62890625 C-46.1861377 100.6038501 -47.23946289 100.57879395 -48.32470703 100.55297852 C-50.875 100.25 -50.875 100.25 -52.875 98.25 C-53.1875 95.75 -53.1875 95.75 -52.875 93.25 C-49.47068053 90.98045369 -47.70975798 90.88450051 -43.6875 90.625 C-42.60082031 90.55023438 -41.51414063 90.47546875 -40.39453125 90.3984375 C-39.56308594 90.34945312 -38.73164062 90.30046875 -37.875 90.25 C-38.96119217 86.60018663 -38.96119217 86.60018663 -41.66186523 84.10742188 C-44.08798367 83.16748498 -45.94006772 82.96704577 -48.53515625 82.90625 C-49.41107422 82.87660156 -50.28699219 82.84695312 -51.18945312 82.81640625 C-53.02538835 82.77204108 -54.86132586 82.72777064 -56.69726562 82.68359375 C-58.00920898 82.63912109 -58.00920898 82.63912109 -59.34765625 82.59375 C-60.14437744 82.57505859 -60.94109863 82.55636719 -61.76196289 82.53710938 C-63.875 82.25 -63.875 82.25 -66.875 80.25 C-67.125 77.6875 -67.125 77.6875 -66.875 75.25 C-65.08505262 73.46005262 -62.36290444 73.91150137 -59.9375 73.75 C-55.75332585 73.57264916 -55.75332585 73.57264916 -51.875 72.25 C-51.62469023 69.83380177 -51.62469023 69.83380177 -51.875 67.25 C-55.05496374 65.13002417 -55.93160726 64.99553137 -59.5859375 64.94140625 C-60.50117187 64.91626953 -61.41640625 64.89113281 -62.359375 64.86523438 C-64.27858088 64.83022184 -66.19785865 64.79894071 -68.1171875 64.77148438 C-74.48673708 64.58809144 -78.23691877 63.88808123 -82.875 59.25 C-82.875 58.26 -82.875 57.27 -82.875 56.25 C-80.21409072 54.91954536 -78.07372449 55.05382577 -75.09765625 54.96875 C-73.94458984 54.93136719 -72.79152344 54.89398438 -71.60351562 54.85546875 C-70.39373047 54.82066406 -69.18394531 54.78585938 -67.9375 54.75 C-65.55326344 54.68118719 -63.16913588 54.60845314 -60.78515625 54.53125 C-59.72433838 54.50095703 -58.66352051 54.47066406 -57.57055664 54.43945312 C-54.77650697 54.35546727 -54.77650697 54.35546727 -51.875 53.25 C-51.78863281 52.30640625 -51.70226562 51.3628125 -51.61328125 50.390625 C-49.74882186 33.35391351 -43.48634241 21.63774788 -30.49609375 10.328125 C-20.65338228 2.52436568 -12.44380384 -0.09094132 0 0 Z " fill="#010101" transform="translate(112.875,33.75)"/>
<path d="M0 0 C1.07435303 -0.00459229 2.14870605 -0.00918457 3.25561523 -0.01391602 C4.71463257 -0.01089478 4.71463257 -0.01089478 6.203125 -0.0078125 C7.04004883 -0.00668457 7.87697266 -0.00555664 8.73925781 -0.00439453 C10.75 0.125 10.75 0.125 12.75 1.125 C12.625 4.375 12.625 4.375 11.75 8.125 C10.8734375 8.66382813 9.996875 9.20265625 9.09375 9.7578125 C4.4558994 12.61144982 2.15581559 17.2012018 -0.625 21.75 C-1.7645349 23.55572204 -2.9077364 25.35913569 -4.0546875 27.16015625 C-4.6022168 28.02012207 -5.14974609 28.88008789 -5.71386719 29.76611328 C-9.70851647 35.90029976 -13.60767777 41.70383562 -20.25 45.125 C-23.1875 45.375 -23.1875 45.375 -26.25 44.125 C-27.98075318 42.05259165 -29.35257881 39.89357802 -30.75390625 37.5859375 C-32.12323578 35.33351556 -33.58165421 33.27467357 -35.1875 31.1875 C-44.6791958 18.65646853 -44.6791958 18.65646853 -47.3125 12.625 C-48.78764241 9.42993173 -49.05115068 9.21677661 -52.5 7.625 C-53.4075 7.46 -54.315 7.295 -55.25 7.125 C-54.375 2.25 -54.375 2.25 -53.25 1.125 C-50.74400737 0.96366342 -48.26298404 0.86501856 -45.75390625 0.80859375 C-44.9813298 0.78772202 -44.20875336 0.76685028 -43.4127655 0.74534607 C-40.87944895 0.67888646 -38.34603018 0.62020178 -35.8125 0.5625 C-34.95652222 0.54165344 -34.10054443 0.52080688 -33.21862793 0.49932861 C-22.14645218 0.23004191 -11.07571438 0.02641076 0 0 Z " fill="#020202" transform="translate(136.25,150.875)"/>
</svg>
